<?xml version="1.0" encoding="iso-8859-1"?>
<!-- Generator: Adobe Illustrator 19.0.0, SVG Export Plug-In . SVG Version: 6.00 Build 0)  -->
<svg version="1.1" id="Layer_1" xmlns="http://www.w3.org/2000/svg" xmlns:xlink="http://www.w3.org/1999/xlink" x="0px" y="0px"
	 viewBox="0 0 509.287 509.287" style="enable-background:new 0 0 509.287 509.287;" xml:space="preserve">
<circle style="fill:#6EB1E1;" cx="254.644" cy="254.644" r="254.644"/>
<g>
	<polygon style="fill:#414753;" points="269.563,296.011 239.724,296.011 239.724,424.18 204.8,424.18 254.644,473.685 
		304.487,424.18 269.563,424.18 	"/>
	<polygon style="fill:#414753;" points="169.875,296.011 169.875,364.503 107.486,364.503 107.486,329.579 57.642,379.423 
		107.486,429.266 107.486,394.342 199.714,394.342 199.714,296.011 	"/>
	<polygon style="fill:#414753;" points="451.645,379.423 401.801,329.579 401.801,364.503 339.412,364.503 339.412,296.011 
		309.573,296.011 309.573,394.342 401.801,394.342 401.801,429.266 	"/>
</g>
<path style="fill:#FCFCFD;" d="M402.819,147.836c-2.713-16.275-11.189-31.873-25.091-43.062
	c-17.293-13.902-39.672-17.632-59.677-12.546c-20.344-33.907-57.642-56.625-100.027-56.625
	c-63.068,0-114.268,49.844-116.641,112.572c-38.315,3.391-68.493,35.942-68.493,75.274c0,41.706,33.907,75.613,75.613,75.613
	c0.678,0,1.356,0,2.034,0l0,0h289.907c41.706,0,75.613-33.907,75.613-75.613C476.058,182.082,443.507,148.853,402.819,147.836z"/>
<g>
</g>
<g>
</g>
<g>
</g>
<g>
</g>
<g>
</g>
<g>
</g>
<g>
</g>
<g>
</g>
<g>
</g>
<g>
</g>
<g>
</g>
<g>
</g>
<g>
</g>
<g>
</g>
<g>
</g>
</svg>
