<?xml version="1.0" encoding="utf-8"?>
<!-- Generator: Adobe Illustrator 18.1.0, SVG Export Plug-In . SVG Version: 6.00 Build 0)  -->
<!DOCTYPE svg PUBLIC "-//W3C//DTD SVG 1.1//EN" "http://www.w3.org/Graphics/SVG/1.1/DTD/svg11.dtd">
<svg version="1.1" id="Layer_1" xmlns="http://www.w3.org/2000/svg" xmlns:xlink="http://www.w3.org/1999/xlink" x="0px" y="0px"
	 viewBox="0 0 320 320" enable-background="new 0 0 320 320" xml:space="preserve">
<g>
	<circle fill="#EFEFEF" cx="160" cy="160" r="160"/>
	<g>
		<defs>
			<circle id="SVGID_55_" cx="160" cy="160" r="160"/>
		</defs>
		<clipPath id="SVGID_2_">
			<use xlink:href="#SVGID_55_"  overflow="visible"/>
		</clipPath>
		<g clip-path="url(#SVGID_2_)">
			<g>
				<g>
					<g>
						<polygon points="102.1,72.8 76.8,72.8 79.4,83.6 99.5,83.6 						"/>
					</g>
				</g>
				<g>
					<path fill="#FFFFFF" d="M96.5,56.2l-3.9,3.9v12.4h-6.7V60.1l-3.9-3.9l1.4-0.7c0.4-0.2,0.7-0.5,0.9-0.9l0.5-1.1l3.4,3.4v-7
						c0.4,0.1,1.9,0.1,2.2,0v6.9l3.4-3.4l0.6,1.1c0.3,0.5,0.7,0.9,1.2,1.2L96.5,56.2z"/>
				</g>
				<g>
					<circle fill="#C6C6C6" cx="89.2" cy="42.8" r="4.9"/>
					<circle fill="#C6C6C6" cx="99.4" cy="50.5" r="4.9"/>
					<circle fill="#C6C6C6" cx="79.1" cy="50.5" r="4.9"/>
				</g>
			</g>
			<g>
				<path fill="#FFFFFF" d="M242.2,78.8h-25c0-7.2,5.4-13.6,11.1-17.4c0.9-0.6,0.9-1.7,0-2.3c-5.6-3.8-11.1-10.2-11.1-17.4h25
					c0,7.2-5.4,13.6-11.1,17.4c-0.9,0.6-0.9,1.7,0,2.3C236.8,65.1,242.2,71.5,242.2,78.8z"/>
				<path d="M229.6,68v-7.5c0-0.5-0.3-1.1-0.7-1.4c-0.6-0.5-1.6-1.2-2.6-2.1h6.8c-1,0.8-1.9,1.5-2.5,2c-0.4,0.3-0.7,0.8-0.7,1.4V68
					c0,0.9,0.3,1.7,1,2.3l8,8h-18.3l8-8C229.3,69.7,229.6,68.8,229.6,68z"/>
				<rect x="214.9" y="37" fill="#F47C2F" width="29.6" height="3.5"/>
				<rect x="214.9" y="79.8" fill="#F47C2F" width="29.6" height="3.5"/>
			</g>
			<rect x="62.8" y="83.3" fill="#C6C6C6" width="195.8" height="10.7"/>
			<g>
				<rect x="112.7" y="33.6" fill="#F47C2F" width="14.7" height="50"/>
				<rect x="130.6" y="33.6" fill="#F47C2F" width="14.7" height="50"/>
				<rect x="148.5" y="39.8" fill="#F47C2F" width="8" height="43.8"/>
				<rect x="159.4" y="33.6" fill="#F47C2F" width="14.7" height="50"/>
				<rect x="194.1" y="33.6" fill="#F47C2F" width="14.7" height="50"/>
				<rect x="176.3" y="39.8" fill="#F47C2F" width="14.7" height="43.8"/>
			</g>
		</g>
		<g clip-path="url(#SVGID_2_)">
			<rect x="-8.5" y="132.3" fill="#E8E8E8" width="381.1" height="215.7"/>
		</g>
		<g clip-path="url(#SVGID_2_)">
			<g>
				<rect x="75.3" y="111.2" fill="#FFFFFF" width="169.8" height="86.6"/>
				<path fill="#C6C6C6" d="M70.7,118.4v85.2h178.9v-85.2c0-6.1-5-11.1-11.1-11.1H81.8C75.7,107.3,70.7,112.3,70.7,118.4z
					 M241.6,196.1H78.8v-81.2h162.9V196.1z"/>
				<path fill="#C6C6C6" d="M249.6,277.5v-71.2H70.7v71.2c0,6.1,5,11.1,11.1,11.1h156.7C244.7,288.6,249.6,283.7,249.6,277.5z"/>
			</g>
			<g>
				<g>
					<g>
						<rect x="221.2" y="216" fill="#EFEFEF" width="18" height="5.4"/>
					</g>
					<g>
						<rect x="193.2" y="216" fill="#EFEFEF" width="18" height="5.4"/>
					</g>
					<g>
						<rect x="165.2" y="216" fill="#EFEFEF" width="18" height="5.4"/>
					</g>
					<g>
						<rect x="137.2" y="216" fill="#EFEFEF" width="18" height="5.4"/>
					</g>
					<g>
						<rect x="109.2" y="216" fill="#EFEFEF" width="18" height="5.4"/>
					</g>
					<g>
						<rect x="81.2" y="216" fill="#EFEFEF" width="18" height="5.4"/>
					</g>
				</g>
				<g>
					<g>
						<rect x="221.2" y="228.3" fill="#EFEFEF" width="18" height="5.4"/>
					</g>
					<g>
						<rect x="193.2" y="228.3" fill="#EFEFEF" width="18" height="5.4"/>
					</g>
					<g>
						<rect x="165.2" y="228.3" fill="#EFEFEF" width="18" height="5.4"/>
					</g>
					<g>
						<rect x="137.2" y="228.3" fill="#EFEFEF" width="18" height="5.4"/>
					</g>
					<g>
						<rect x="109.2" y="228.3" fill="#EFEFEF" width="18" height="5.4"/>
					</g>
					<g>
						<rect x="81.2" y="228.3" fill="#EFEFEF" width="18" height="5.4"/>
					</g>
				</g>
				<g>
					<g>
						<rect x="221.2" y="240.6" fill="#EFEFEF" width="18" height="5.4"/>
					</g>
					<g>
						<rect x="193.2" y="240.6" fill="#EFEFEF" width="18" height="5.4"/>
					</g>
					<g>
						<rect x="165.2" y="240.6" fill="#EFEFEF" width="18" height="5.4"/>
					</g>
					<g>
						<rect x="137.2" y="240.6" fill="#EFEFEF" width="18" height="5.4"/>
					</g>
					<g>
						<rect x="109.2" y="240.6" fill="#EFEFEF" width="18" height="5.4"/>
					</g>
					<g>
						<rect x="81.2" y="240.6" fill="#EFEFEF" width="18" height="5.4"/>
					</g>
				</g>
			</g>
			<rect x="141.7" y="258" fill="#EFEFEF" width="37" height="17"/>
		</g>
	</g>
	<g>
		<polygon points="148.1,131.5 152.9,136.3 136.2,153 152.9,169.7 148.1,174.5 126.6,153 		"/>
		<polygon points="178.1,174.5 173.3,169.7 190,153 173.3,136.3 178.1,131.5 199.6,153 		"/>
	</g>
</g>
</svg>
