<!DOCTYPE svg PUBLIC "-//W3C//DTD SVG 20010904//EN" "http://www.w3.org/TR/2001/REC-SVG-20010904/DTD/svg10.dtd">
<svg version="1.0" xmlns="http://www.w3.org/2000/svg" width="328px" height="404px" viewBox="0 0 3280 4040" preserveAspectRatio="xMidYMid meet">
<g id="layer101" fill="#000000" stroke="none">
 <path d="M337 3762 l-207 -207 0 -905 0 -905 208 -208 207 -207 530 0 530 0 122 122 123 123 0 -653 0 -652 -175 0 -175 0 0 -85 0 -85 478 0 477 0 203 203 202 202 0 1648 0 1647 175 0 175 0 0 85 0 85 -472 0 -473 0 -157 -157 -158 -158 -158 158 -157 157 -545 0 -545 0 -208 -208z m633 -1112 l0 -1150 -167 0 -168 0 -157 157 -158 158 0 835 0 835 157 157 158 158 167 0 168 0 0 -1150z m727 998 l153 -153 0 -830 0 -830 -167 -167 -168 -168 -177 0 -178 0 0 1150 0 1150 192 0 193 0 152 -152z m973 -1455 l0 -1608 -157 -157 -158 -158 -157 0 -158 0 0 1607 0 1608 157 157 158 158 157 0 158 0 0 -1607z"/>
 </g>

</svg>